<svg height="103" viewBox="0 0 862 103" width="862" xmlns="http://www.w3.org/2000/svg"><g fill="#0066b1"><path d="m252.8 22.1c.8 2.7 1.7 5.8 2.6 9.2s2 7 3.1 10.7 2.2 7.3 3.3 11 2.2 7.1 3.3 10.2c.9-3.4 1.8-7.1 2.7-11.1s1.8-8.1 2.6-12.4 1.6-8.5 2.4-12.8 1.5-8.3 2.2-12.2h16.2c-2.3 11.6-5 23.4-8.1 35.3s-6.4 23.3-9.9 34h-14.3c-2.3-6.4-4.6-13.1-6.8-20.2s-4.4-14.1-6.5-21.1c-2.1 7.1-4.3 14.1-6.4 21.1s-4.4 13.8-6.7 20.2h-14.3c-3.5-10.7-6.8-22.1-9.9-34s-5.7-23.7-8.1-35.3h16.9c.7 3.9 1.4 8 2.2 12.2s1.6 8.5 2.5 12.8 1.8 8.4 2.7 12.4 1.8 7.7 2.8 11.1c1.2-3.3 2.4-6.7 3.5-10.4s2.2-7.3 3.3-11 2.1-7.2 3-10.6 1.7-6.4 2.5-9.1z"/><path d="m313.3 30c3.723735-.0995764 7.438884.4070348 11 1.5 5.285634 1.5696292 9.375744 5.7733537 10.8 11.1.746783 2.9072252 1.116483 5.8984386 1.1 8.9v31c-2.1.5-5.1 1-8.9 1.7-4.570186.652749-9.183745.9536333-13.8.9-3.090159.0328624-6.174795-.2688955-9.2-.9-2.546277-.5060355-4.962339-1.5269064-7.1-3-1.940624-1.3672941-3.519376-3.186291-4.6-5.3-1.153732-2.5395582-1.701474-5.3124999-1.6-8.1-.09238-2.7126669.528265-5.4021289 1.8-7.8 1.210565-2.0939544 2.930425-3.8482116 5-5.1 2.189331-1.3320848 4.590755-2.279125 7.1-2.8 2.724815-.6063583 5.508546-.9082086 8.3-.9 1.9 0 3.6.1 5.1.2 1.249442.1382225 2.486416.3722446 3.7.7v-1.4c.088092-2.2604248-.741426-4.4604491-2.3-6.1-1.5-1.5-4.2-2.3-8-2.3-2.507723.0172453-5.01218.1842091-7.5.5-2.170461.3257173-4.310846.82737-6.4 1.5l-1.9-12c.9-.3 1.9-.5 3.2-.8s2.7-.6 4.2-.8 3.1-.4 4.8-.6c1.8 0 3.5-.1 5.2-.1zm1.2 43.6c1.5 0 2.9 0 4.2-.1s2.4-.2 3.2-.3v-11.3c-.6-.1-1.5-.3-2.7-.4s-2.3-.2-3.3-.2c-1.4 0-2.7.1-4 .2-1.115341.1508782-2.197209.4889618-3.2 1-.881512.4381457-1.638206 1.091654-2.2 1.9-.545621.903962-.823067 1.9443878-.8 3 0 2.3.8 3.9 2.4 4.8 1.5 1 3.7 1.4 6.4 1.4z"/><path d="m367.3 30c3.723735-.0995764 7.438884.4070348 11 1.5 5.285634 1.5696292 9.375744 5.7733537 10.8 11.1.746783 2.9072252 1.116483 5.8984386 1.1 8.9v31c-2.1.5-5.1 1-8.9 1.7-4.570186.652749-9.183745.9536333-13.8.9-3.090159.0328624-6.174795-.2688955-9.2-.9-2.546277-.5060355-4.962339-1.5269064-7.1-3-1.940624-1.3672941-3.519376-3.186291-4.6-5.3-1.153732-2.5395582-1.701474-5.3124999-1.6-8.1-.09238-2.7126669.528265-5.4021289 1.8-7.8 1.210565-2.0939544 2.930425-3.8482116 5-5.1 2.189331-1.3320848 4.590755-2.279125 7.1-2.8 2.724815-.6063583 5.508546-.9082086 8.3-.9 1.9 0 3.6.1 5.1.2 1.249442.1382225 2.486416.3722446 3.7.7v-1.4c.088092-2.2604248-.741426-4.4604491-2.3-6.1-1.5-1.5-4.2-2.3-8-2.3-2.507723.0172453-5.01218.1842091-7.5.5-2.170461.3257173-4.310846.82737-6.4 1.5l-1.9-12c.9-.3 1.9-.5 3.2-.8s2.7-.6 4.2-.8 3.1-.4 4.8-.6c1.8 0 3.5-.1 5.2-.1zm1.2 43.6c1.5 0 2.9 0 4.2-.1s2.4-.2 3.2-.3v-11.3c-.6-.1-1.5-.3-2.7-.4s-2.3-.2-3.3-.2c-1.4 0-2.7.1-4 .2-1.115341.1508782-2.197209.4889618-3.2 1-.881512.4381457-1.638206 1.091654-2.2 1.9-.545621.903962-.823067 1.9443878-.8 3 0 2.3.8 3.9 2.4 4.8 1.5 1 3.7 1.4 6.4 1.4z"/><path d="m433.8 44.6c-1.3-.3-2.9-.7-4.7-1-1.909297-.3778029-3.854214-.5454682-5.8-.5-.9 0-2 .1-3.4.2-.976149.1060218-1.944707.2730147-2.9.5v40.2h-14.9v-49.8c2.7-.9 5.8-1.8 9.5-2.7 3.97828-.8350325 8.035201-1.2373717 12.1-1.2.970774-.0232748 1.941612.0436795 2.9.2 1.1.1 2.3.2 3.4.4l3.4.6c.988315.1808518 1.958745.4485566 2.9.8z"/><path d="m441.8 33.2c3.22343-.8633263 6.496053-1.5312085 9.8-2 4.169206-.6469069 8.380947-.981172 12.6-1 3.781545-.1228021 7.551049.4884688 11.1 1.8 2.746021.9964022 5.166856 2.7255697 7 5 1.780041 2.228634 3.043709 4.8242773 3.7 7.6.750229 3.2121369 1.119441 6.5014716 1.1 9.8v29.6h-14.9v-27.9c0-4.8-.6-8.2-1.9-10.2s-3.6-3-7.1-3c-1.1 0-2.2 0-3.4.1-1.074083.0652004-2.142917.1988047-3.2.4v40.6h-14.9v-50.8z"/><path d="m496 58.1c-.117617-4.1750011.631475-8.3290574 2.2-12.2 1.278985-3.2684009 3.180901-6.257126 5.6-8.8 2.278966-2.291746 5.001002-4.0950952 8-5.3 2.990482-1.1918825 6.180752-1.8027854 9.4-1.8000095 7.5 0 13.4 2.3000095 17.7 6.8000095s6.5 11.3 6.5 20.1999905c.014879.9344419-.018498 1.8690193-.1 2.8000095-.1 1-.1 2-.2 2.8h-33.8c.258755 2.9573962 1.83886 5.6398991 4.3 7.3 2.5 1.8 5.9 2.7 10.2 2.7 2.688316.0361889 5.372084-.2321878 8-.8 2.219809-.3882505 4.396685-.9910778 6.5-1.8000095l2 12.1000095c-1.033937.4823712-2.103831.8835814-3.2 1.2-1.434916.4602113-2.907126.7948043-4.4 1-1.6.3-3.4.6-5.2.8-1.859993.1996411-3.729323.2997838-5.6.3-4.196239.0885701-8.370854-.6241689-12.3-2.1-3.301472-1.2501978-6.276174-3.2333327-8.7-5.8000095-2.320212-2.4503484-4.062776-5.3887908-5.1-8.5999905-1.228265-3.4666996-1.837537-7.1223334-1.8-10.8zm35-5.7c-.078449-1.2576581-.3136-2.5006029-.7-3.7-.343858-1.1708894-.922245-2.2596186-1.7-3.2-.807064-.9488246-1.79231-1.7302265-2.9-2.3-2.741028-1.2002716-5.858972-1.2002716-8.6 0-1.132319.5333394-2.150973 1.2803525-3 2.2-.809813.9342573-1.42211 2.0227861-1.8 3.2-.438609 1.2365977-.773106 2.5076877-1 3.8z"/><path d="m584.3 56.1c0-4.8-.6-8.2-1.9-10.2s-3.3-3-6.3-3c-.9 0-1.9 0-2.9.1-.973565.0773594-1.941846.2109153-2.9.4v40.6h-14.9v-50.8c1.3-.3 2.8-.7 4.5-1s3.5-.7 5.4-1 3.9-.5 5.9-.7 4-.2 5.9-.2c5.461996-.2592586 10.830965 1.4829898 15.1 4.9 2.242195-1.5539252 4.702234-2.7670951 7.3-3.6 2.482115-.8364256 5.080861-1.2751749 7.7-1.3 3.521073-.1216982 7.028896.4913195 10.3 1.8 2.574045 1.0567391 4.81836 2.7831347 6.5 5 1.653564 2.2552149 2.78115 4.85208 3.3 7.6.629393 3.2280037.930925 6.5113548.9 9.8v29.5h-14.9v-27.9c0-4.8-.6-8.2-1.8-10.2s-3.4-3-6.4-3c-1.121463.0551923-2.230883.2569049-3.3.6-1.235471.321117-2.415418.8268089-3.5 1.5.501098 1.555675.803496 3.1684638.9 4.8.1 1.7.2 3.5.2 5.5v28.7h-14.9v-27.9z"/><path d="m657.2 16.2c.096879 2.4377783-.84862 4.8015255-2.6 6.5-1.699924 1.5256531-3.916348 2.347875-6.2 2.3-2.281296.0340348-4.492836-.7863754-6.2-2.3-1.836207-1.6471888-2.828734-4.036605-2.7-6.5-.10731-2.4596535.881563-4.8402721 2.7-6.5 1.691835-1.53899541 3.913778-2.36326463 6.2-2.3 2.281296-.03403478 4.492836.78637545 6.2 2.3 1.75138 1.6984745 2.696879 4.0622217 2.6 6.5zm-1.4 67.8h-14.9v-52.6h14.9z"/><path d="m669.4 33.2c3.22343-.8633263 6.496053-1.5312085 9.8-2 4.169206-.6469069 8.380947-.981172 12.6-1 3.781545-.1228021 7.551049.4884688 11.1 1.8 2.746021.9964022 5.166856 2.7255697 7 5 1.780041 2.228634 3.043709 4.8242773 3.7 7.6.750229 3.2121369 1.119441 6.5014716 1.1 9.8v29.6h-14.9v-27.9c0-4.8-.6-8.2-1.9-10.2s-3.6-3-7.1-3c-1.1 0-2.2 0-3.4.1-1.074083.0652004-2.142917.1988047-3.2.4v40.6h-14.9v-50.8z"/><path d="m771.2 77.4c0 8.6-2.2 15-6.6 19.1s-11.1 6.2-20.2 6.2c-3.215875-.017971-6.425508-.285441-9.6-.8-3.012698-.532671-5.986095-1.267668-8.9-2.2l2.6-12.5c2.365094.9431726 4.807595 1.6792687 7.3 2.2 2.901146.5464265 5.847878.8143112 8.8.8 4.3 0 7.3-.9 9-2.8 1.81888-1.9471789 2.790052-4.5369717 2.7-7.2v-1.9c-1.606489.7302634-3.281321 1.2997065-5 1.7-1.807906.378281-3.653517.5460638-5.5.5-7.3 0-12.8-2.2-16.7-6.5s-5.8-10.3-5.8-18c-.055846-3.581302.554522-7.141782 1.8-10.5 1.154758-3.0599652 2.924517-5.8507387 5.2-8.2 2.401619-2.3564121 5.3085-4.1347391 8.5-5.2 3.633511-1.2518409 7.457371-1.8609513 11.3-1.8 1.8 0 3.7.1 5.5.2l5.7.6c1.9.3 3.7.6 5.3 1s3.2.8 4.6 1.2zm-32.7-21.4c0 8.3 3.4 12.5 10.1 12.5 1.45494.0110198 2.90365-.1911257 4.3-.6 1.177303-.3517823 2.316341-.8207978 3.4-1.4v-23.8c-.7-.1-1.6-.2-2.6-.4s-2.2-.1-3.5-.1c-3.9 0-6.9 1.3-8.8 3.9-2.009025 2.9008976-3.026284 6.3736077-2.9 9.9z"/><path d="m788.8 80.9c.038807 1.0271509-.319289 2.02982-1 2.8-.768969.7694267-1.81219 1.2017247-2.9 1.2017247s-2.131031-.432298-2.9-1.2017247c-1.333333-1.6285714-1.333333-3.9714286 0-5.6.768969-.7694267 1.81219-1.2017247 2.9-1.2017247s2.131031.432298 2.9 1.2017247c.680711.77018 1.038807 1.7728491 1 2.8z"/><path d="m796.9 34.1c1.9-.5 4.5-1.1 7.8-1.8 3.955549-.7408183 7.976393-1.0758886 12-1 3.346914-.0865675 6.677786.4912367 9.8 1.7 2.467788 1.0489669 4.633649 2.6991467 6.3 4.8 1.66399 2.260923 2.823425 4.852602 3.4 7.6.709727 3.1833924 1.045333 6.4387663 1 9.7v28.9h-6.5v-26.8c.086153-3.1202862-.182232-6.2402662-.8-9.3-.364203-2.2262208-1.218077-4.3438276-2.5-6.2-1.155378-1.5940366-2.75557-2.8115738-4.6-3.5-2.291572-.7390535-4.693442-1.077345-7.1-1-2.674745-.0089077-5.34718.1581195-8 .5-1.494531.1424613-2.969567.4441732-4.4.9v45.4h-6.5v-49.9z"/><path d="m860.9 84.9c-1.96255-.0650414-3.910028-.3672362-5.8-.9-1.517189-.4605016-2.91615-1.2452848-4.1-2.3-1.136775-1.1177978-1.993375-2.4883583-2.5-4-.620299-2.0054849-.890913-4.1027457-.8-6.2v-64l6.5-1.2v65c-.030313 1.2848731.138349 2.5667012.5 3.8.26618.849811.709223 1.6336564 1.3 2.3.661543.6316498 1.497754 1.0497553 2.4 1.2 1.115963.3109305 2.251972.5448147 3.4.7z"/><path d="m122.87 5.71c-3.660394.05506647-7.258081.95876709-10.51 2.64-4.138266 2.6573087-8.099907 5.5801045-11.86 8.75-5-8.11-16.43-16.58-28.33-16.58-5 0-11 .92-18.3 6.8-7.13 5.23-45.4 38.2-45.4 38.2-4.9428036 4.7226607-7.65653184 11.3162574-7.47 18.15 0 12.83 10.83 27.75 27.39 27.75 2.5957933-.0736911 5.156922-.6157289 7.56-1.6.8-.3 16.87-7.78 16.87-7.78 4 6.39 12.38 11.28 19.71 11.28 2.380942.0911895 4.757259-.2754423 7-1.08 1.92-.77 50.66-21.29 50.66-21.29 4.73-2 11.63-4.72 14.44-6.45 5.77-3.3 11.52-12.13 11.52-22.35-.02-20.02-15.52-36.44-33.28-36.44zm-43.87 52.29c-12.85 0-25.67-12.77-25.67-28.41 0-7.81 5.08-20.76 19.45-20.76 12.85 0 26.43 11.47 26.43 28.86-.05 12.66-8.89 20.31-20.21 20.31zm53.2.72c-13.74 0-24-12.39-24-26.5 0-5.45 3.31-17.4 16.27-17.4 11.31 0 23.23 11.15 23.23 27-.03 9.96-7.79 16.9-15.55 16.9z"/></g></svg>