<?xml version="1.0" encoding="UTF-8" standalone="no"?>
<!-- Created with Inkscape (http://www.inkscape.org/) -->

<svg
   width="210mm"
   height="297mm"
   viewBox="0 0 210 297"
   version="1.1"
   id="svg1"
   xml:space="preserve"
   inkscape:version="1.3 (0e150ed, 2023-07-21)"
   sodipodi:docname="waarneming.svg"
   inkscape:export-filename="waarneming.svg"
   inkscape:export-xdpi="96"
   inkscape:export-ydpi="96"
   xmlns:inkscape="http://www.inkscape.org/namespaces/inkscape"
   xmlns:sodipodi="http://sodipodi.sourceforge.net/DTD/sodipodi-0.dtd"
   xmlns="http://www.w3.org/2000/svg"
   xmlns:svg="http://www.w3.org/2000/svg"><sodipodi:namedview
     id="namedview1"
     pagecolor="#ffffff"
     bordercolor="#000000"
     borderopacity="0.25"
     inkscape:showpageshadow="2"
     inkscape:pageopacity="0.0"
     inkscape:pagecheckerboard="0"
     inkscape:deskcolor="#d1d1d1"
     inkscape:document-units="mm"
     inkscape:zoom="1.398669"
     inkscape:cx="390.37114"
     inkscape:cy="238.08349"
     inkscape:window-width="1512"
     inkscape:window-height="859"
     inkscape:window-x="0"
     inkscape:window-y="38"
     inkscape:window-maximized="0"
     inkscape:current-layer="layer1" /><defs
     id="defs1" /><g
     inkscape:label="Layer 1"
     inkscape:groupmode="layer"
     id="layer1"><g
       id="g2"
       inkscape:export-filename="waarneming.svg"
       inkscape:export-xdpi="96"
       inkscape:export-ydpi="96"><rect
         style="fill:none;fill-opacity:0.514381;stroke-width:5.29167;stroke-linecap:round;stroke-linejoin:round"
         id="rect2"
         width="33.866665"
         height="33.866665"
         x="54.686798"
         y="30.378918" /><path
         d="m 81.289417,38.315825 c -0.798954,0.01203 -1.584224,0.209268 -2.294025,0.576236 -0.903261,0.580012 -1.767972,1.217971 -2.58869,1.909864 -1.091354,-1.770174 -3.586188,-3.618927 -6.183609,-3.618927 -1.091356,0 -2.400979,0.200812 -3.994352,1.484244 -1.556272,1.141555 -9.909493,8.337937 -9.909493,8.337937 -1.078869,1.030821 -1.671196,2.470015 -1.630481,3.961616 0,2.800409 2.363872,6.057016 5.978434,6.057016 0.566586,-0.01608 1.125605,-0.134395 1.650127,-0.349239 0.174616,-0.06549 3.682226,-1.698139 3.682226,-1.698139 0.873084,1.394743 2.702191,2.46209 4.302115,2.46209 0.519691,0.01991 1.038372,-0.06014 1.527895,-0.235729 0.419083,-0.16807 11.057596,-4.646986 11.057596,-4.646986 1.032418,-0.436544 2.538487,-1.030243 3.151826,-1.407851 1.259422,-0.720289 2.514479,-2.64762 2.514479,-4.878346 -0.0044,-4.36978 -3.387562,-7.953786 -7.264048,-7.953786 z M 71.71388,49.729198 c -2.804775,0 -5.603008,-2.787318 -5.603008,-6.201068 0,-1.704698 1.108814,-4.531301 4.245366,-4.531301 2.804779,0 5.768896,2.503565 5.768896,6.299296 -0.01082,2.763304 -1.940429,4.433073 -4.411254,4.433073 z m 11.612003,0.157154 c -2.999039,0 -5.238496,-2.704366 -5.238496,-5.784173 0,-1.189569 0.722477,-3.797912 3.551264,-3.797912 2.468641,0 5.070428,2.433724 5.070428,5.89331 -0.0065,2.173977 -1.700329,3.688775 -3.394111,3.688775 z"
         id="path14"
         style="fill:#0066b1;stroke-width:0.21827" /></g></g></svg>
