<?xml version="1.0" encoding="UTF-8" standalone="no"?>
<!-- Created with Inkscape (http://www.inkscape.org/) -->

<svg
   width="33.866657mm"
   height="33.866669mm"
   viewBox="0 0 33.866657 33.866669"
   version="1.1"
   id="svg1"
   inkscape:version="1.3 (0e150ed, 2023-07-21)"
   sodipodi:docname="ai.svg"
   xml:space="preserve"
   xmlns:inkscape="http://www.inkscape.org/namespaces/inkscape"
   xmlns:sodipodi="http://sodipodi.sourceforge.net/DTD/sodipodi-0.dtd"
   xmlns="http://www.w3.org/2000/svg"
   xmlns:svg="http://www.w3.org/2000/svg"><sodipodi:namedview
     id="namedview1"
     pagecolor="#007AFF"
     bordercolor="#000000"
     borderopacity="0.25"
     inkscape:showpageshadow="2"
     inkscape:pageopacity="0.0"
     inkscape:pagecheckerboard="0"
     inkscape:deskcolor="#d1d1d1"
     inkscape:document-units="mm"
     inkscape:zoom="0.2102413"
     inkscape:cx="394.78447"
     inkscape:cy="561.25984"
     inkscape:window-width="1312"
     inkscape:window-height="431"
     inkscape:window-x="0"
     inkscape:window-y="38"
     inkscape:window-maximized="0"
     inkscape:current-layer="layer1" /><defs
     id="defs1" /><g
     inkscape:label="Layer 1"
     inkscape:groupmode="layer"
     id="layer1"
     transform="translate(-105.72618,-0.03078802)"><g
       id="g10"><path
         id="path2"
         style="fill:#007AFF;stroke-width:1.35317"
         d="m 129.65177,29.468737 c 0.39767,-0.186094 0.67406,-0.44924 0.85269,-0.811848 0.13532,-0.274669 0.14545,-0.327078 0.14545,-0.752068 v -0.456826 l 1.67824,-1.709192 1.67825,-1.709192 0.24307,0.07267 c 0.4038,0.120717 0.90885,0.0744 1.27853,-0.117251 0.22792,-0.118159 0.53837,-0.420381 0.65215,-0.634879 l 0.10853,-0.204524 h 0.68435 c 0.585,0 0.70845,-0.01231 0.85038,-0.08525 0.23163,-0.118917 0.34233,-0.325379 0.343,-0.63971 6.3e-4,-0.286085 -0.0812,-0.434945 -0.33313,-0.606451 -0.13798,-0.09391 -0.19549,-0.100689 -0.85358,-0.100689 h -0.70562 l -0.16024,-0.218302 c -0.19337,-0.263415 -0.39031,-0.418977 -0.7319,-0.578137 -0.218,-0.101569 -0.31741,-0.119675 -0.65947,-0.120081 -0.35968,-4.29e-4 -0.43475,0.01464 -0.70171,0.140918 -0.39872,0.188603 -0.67524,0.451913 -0.85232,0.811595 -0.12368,0.251383 -0.14439,0.341362 -0.1449,0.632031 -3.4e-4,0.186404 0.0155,0.39751 0.0351,0.469125 0.0344,0.125398 -0.0252,0.191143 -1.61166,1.780719 -1.32795,1.330521 -1.66467,1.645508 -1.73682,1.624708 -0.53481,-0.154166 -0.66231,-0.170594 -0.96291,-0.124071 -0.6321,0.09783 -1.17053,0.482328 -1.43894,1.027532 -0.40516,0.823022 -0.0606,1.842796 0.76835,2.274488 0.30155,0.157019 0.50807,0.200146 0.89583,0.187067 0.31657,-0.01069 0.43172,-0.03651 0.67935,-0.152383 z m -8.77006,-1.032993 c 0.34993,-0.172268 0.66533,-0.494475 0.83188,-0.8498 0.10663,-0.227409 0.11976,-0.30822 0.11867,-0.725809 -8.2e-4,-0.419298 -0.0143,-0.496959 -0.1234,-0.721054 -0.15284,-0.3141 -0.53079,-0.677086 -0.87105,-0.836542 -0.22849,-0.107076 -0.31044,-0.120648 -0.7283,-0.120648 -0.43978,0 -0.49015,0.0095 -0.76327,0.143956 -0.29285,0.144173 -0.57618,0.394843 -0.76731,0.678879 l -0.10203,0.151536 -3.19985,0.0051 c -1.75992,0.0028 -3.2602,-0.01164 -3.33397,-0.03208 -0.0921,-0.02556 -0.71578,-0.616826 -1.99423,-1.890822 l -1.86013,-1.853634 h -0.2666 c -0.20884,0 -0.30139,0.02364 -0.42722,0.109146 -0.3235,0.219824 -0.39899,0.626682 -0.17948,0.967353 0.21017,0.326189 3.65934,3.715086 3.92531,3.856719 0.48884,0.260318 0.45465,0.258148 4.07141,0.258148 h 3.31753 l 0.0529,0.11617 c 0.15175,0.333028 0.56412,0.67564 1.00034,0.831114 0.37568,0.133896 0.92366,0.09687 1.29864,-0.08773 z m 8.9556,-5.742591 c 0.0599,-0.02734 0.13139,-0.09877 0.15874,-0.158743 0.0692,-0.151709 0.0709,-15.0465312 0.002,-15.1981631 -0.0862,-0.1891864 -0.16388,-0.2036693 -1.14205,-0.2129399 -1.2225,-0.011637 -1.16921,-0.016129 -1.29586,0.1105132 l -0.10988,0.1098502 v 7.5458906 c 0,5.068383 0.0151,7.574034 0.0459,7.631614 0.10447,0.195098 0.23564,0.217979 1.26105,0.219871 0.62032,0.0012 1.01068,-0.01615 1.08032,-0.04791 z m -18.26817,-5.186642 c 0.72389,-0.228327 1.16964,-0.848707 1.17353,-1.633286 0.002,-0.492821 -0.1253,-0.810297 -0.46005,-1.142854 -0.39374,-0.391235 -0.88656,-0.572825 -1.40695,-0.518433 -0.4807,0.05025 -1.00631,0.364141 -1.23739,0.738965 l -0.11191,0.181487 -0.87268,0.0023 c -0.47998,0.0012 -0.95045,0.02031 -1.04551,0.04237 -0.28779,0.06678 -0.56562,0.401093 -0.56562,0.680625 0,0.196356 0.18076,0.482721 0.37746,0.597992 0.18599,0.108998 0.20895,0.111244 1.13575,0.111244 h 0.94593 l 0.0721,0.139377 c 0.0977,0.188918 0.39907,0.51014 0.58843,0.627171 0.22709,0.140345 0.62895,0.257617 0.89224,0.260369 0.12666,0.0013 0.35824,-0.03797 0.51466,-0.08731 z m 26.35023,-1.340893 c 0.11813,-0.0603 0.20218,-0.149304 0.26674,-0.282649 0.11001,-0.227301 0.11839,-0.382153 0.0315,-0.581784 -0.0355,-0.08152 -0.9495,-1.027601 -2.10642,-2.180281 -1.12405,-1.119949 -2.08265,-2.110989 -2.13022,-2.202313 -0.0803,-0.153963 -0.0865,-0.269714 -0.0865,-1.5913584 V 7.9019155 l 0.26327,-0.1703705 c 0.95358,-0.6171052 1.13017,-2.0077996 0.35855,-2.8236703 -0.51489,-0.5444158 -1.19081,-0.7302098 -1.8782,-0.5162713 -0.91791,0.2856835 -1.43539,1.1858321 -1.23271,2.1442787 0.10541,0.4988047 0.39312,0.927231 0.81948,1.2205747 l 0.19277,0.132624 2.5e-4,1.4411396 c 1.3e-4,0.7926276 0.0195,1.5583646 0.0429,1.7016396 0.0969,0.591465 0.0908,0.584155 2.43182,2.932884 1.18632,1.190231 2.21736,2.191356 2.29121,2.224719 0.19803,0.08947 0.53477,0.07857 0.7355,-0.02384 z M 108.33368,10.94243 c 0.0978,-0.04492 0.77742,-0.685098 1.6924,-1.594111 l 1.529,-1.5190388 0.23188,0.055629 c 0.58802,0.1410623 1.25396,-0.033843 1.67028,-0.4386847 0.89966,-0.8748729 0.66695,-2.3333352 -0.4667,-2.9249657 -0.2766,-0.1443424 -0.30475,-0.1496008 -0.80133,-0.1496008 -0.47843,0 -0.53348,0.0092 -0.78221,0.1311489 -0.50405,0.2470953 -0.85427,0.7069191 -0.96428,1.2660845 -0.0523,0.2660417 -0.0404,0.4163853 0.0718,0.9106662 0.0236,0.1035986 -0.12232,0.2601723 -1.47252,1.5802155 -0.82427,0.8058694 -1.55334,1.544117 -1.62018,1.6405492 -0.15469,0.2232237 -0.19195,0.5140887 -0.0909,0.7095367 0.041,0.07932 0.16803,0.203496 0.28226,0.275935 0.24088,0.152755 0.47172,0.170902 0.72044,0.05663 z m 11.66497,-3.8791089 c -0.56398,0.00365 -1.06395,0.027943 -1.17057,0.056644 -0.36708,0.098849 -0.37555,0.1172385 -1.28595,2.8760926 -0.45754,1.3865473 -1.55682,4.7053593 -2.44325,7.3751863 -0.98411,2.963991 -1.61181,4.920462 -1.61181,5.024246 0,0.143732 0.0225,0.183038 0.14544,0.25803 0.13194,0.08042 0.22724,0.08866 1.02234,0.08881 0.63189,1.2e-4 0.93613,-0.01749 1.08946,-0.06364 0.11705,-0.03521 0.25141,-0.09858 0.29858,-0.141251 0.0776,-0.0703 0.44626,-1.15175 0.9538,-2.799174 0.10108,-0.328061 0.18677,-0.531507 0.23217,-0.548925 0.0397,-0.01522 1.24562,-0.04062 2.67959,-0.05664 l 2.60687,-0.02936 0.0686,0.107684 c 0.0378,0.05938 0.27462,0.783043 0.52584,1.60762 0.25122,0.824576 0.48878,1.55479 0.52866,1.623002 0.0399,0.06821 0.1553,0.163871 0.25592,0.212577 0.16377,0.07928 0.27732,0.08881 1.08737,0.08881 0.67892,0 0.94282,-0.0161 1.05658,-0.06364 0.16167,-0.06755 0.24825,-0.185372 0.24825,-0.337746 0,-0.05155 -0.14934,-0.561249 -0.33145,-1.132815 -0.1821,-0.571569 -0.42483,-1.341198 -0.53983,-1.710413 -0.11502,-0.369213 -0.30652,-0.973383 -0.42586,-1.342596 -0.21177,-0.655233 -0.47877,-1.496444 -1.54609,-4.878097 -1.54266,-4.8877074 -1.86262,-5.8642519 -1.95375,-5.9612659 -0.21044,-0.2240047 -0.42403,-0.2601207 -1.49084,-0.2531356 z m -0.0629,3.3082399 c 0.0122,-0.01177 0.25903,0.758395 0.54893,1.711111 0.28988,0.952717 0.7293,2.375202 0.97688,3.161394 0.32891,1.044479 0.43842,1.448237 0.40627,1.499232 -0.0385,0.06113 -0.28102,0.07089 -1.95375,0.08111 -1.55893,0.0095 -1.91337,0.0012 -1.93208,-0.04755 -0.0122,-0.03284 0.21899,-0.843872 0.51466,-1.802014 1.07616,-3.487438 1.41809,-4.582284 1.43909,-4.603287 z" /><rect
         style="fill="#007AFF";fill-opacity:0.514381;stroke-width:5.29167;stroke-linecap:round;stroke-linejoin:round"
         id="rect10"
         width="33.866665"
         height="33.866665"
         x="105.72617"
         y="0.030788019" /></g></g></svg>
