<?xml version="1.0" encoding="UTF-8" standalone="no"?>
<!-- Created with Inkscape (http://www.inkscape.org/) -->

<svg
   width="188.3295mm"
   height="167.44353mm"
   viewBox="0 0 188.3295 167.44353"
   version="1.1"
   id="svg1"
   xml:space="preserve"
   xmlns:inkscape="http://www.inkscape.org/namespaces/inkscape"
   xmlns:sodipodi="http://sodipodi.sourceforge.net/DTD/sodipodi-0.dtd"
   xmlns="http://www.w3.org/2000/svg"
   xmlns:svg="http://www.w3.org/2000/svg"><sodipodi:namedview
     id="namedview1"
     pagecolor="#ffffff"
     bordercolor="#000000"
     borderopacity="0.25"
     inkscape:showpageshadow="2"
     inkscape:pageopacity="0.0"
     inkscape:pagecheckerboard="0"
     inkscape:deskcolor="#d1d1d1"
     inkscape:document-units="mm" /><defs
     id="defs1" /><g
     inkscape:label="Layer 1"
     inkscape:groupmode="layer"
     id="layer1"
     transform="translate(-11.894066,-52.871672)"><path
       style="fill:#007AFF"
       d="m 56.377828,219.89282 c -1.51607,-0.7471 -2.26952,-2.02147 -2.37896,-4.02376 -0.12935,-2.36657 0.23155,-2.84369 5.11185,-6.75776 4.67194,-3.74696 11.29497,-10.26153 14.40949,-14.17352 3.3797,-4.24506 6.67814,-9.45134 9.13564,-14.41979 3.36782,-6.80889 4.81116,-11.18635 6.63014,-20.10833 1.81921,-8.9231 2.99318,-12.78 5.28185,-17.35262 2.9419,-5.87774 7.434842,-10.55452 13.149622,-13.68766 2.38989,-1.31026 8.30362,-3.44133 13.65354,-4.92017 l 4.05424,-1.12069 -1.61943,-1.49931 c -2.31814,-2.14619 -5.1922,-4.28301 -9.98265,-7.42198 l -4.18663,-2.74331 -2.10571,-4.59351 c -1.15813,-2.52643 -2.78468,-5.62754 -3.61455,-6.89136 -4.119342,-6.273412 -10.991692,-10.692078 -19.540142,-12.56359 -3.46965,-0.759612 -12.10247,-0.697494 -15.81505,0.113799 -4.06554,0.888422 -6.7188,1.788542 -10.30396,3.495625 -11.29052,5.376015 -20.37882,14.763616 -33.94176,35.059536 -2.14161,3.20476 -4.32576,6.20608 -4.85368,6.66959 -2.4336,2.13673 -6.08731,1.5474 -7.22048,-1.16464 -0.46622,-1.11582 -0.46209,-3.30139 0.008,-4.42734 0.20309,-0.48606 1.70857,-2.89325 3.34551,-5.34931 12.79172,-19.1927 21.52628,-29.066926 31.68966,-35.824466 6.86598,-4.565136 15.28717,-7.781588 22.85785,-8.730506 3.88297,-0.486695 12.34006,-0.215845 15.66086,0.501561 6.04604,1.306151 11.10546,3.455285 16.222362,6.890914 4.07864,2.73851 6.48425,4.983178 8.73726,8.152727 2.47737,3.485164 2.76329,3.991817 4.28941,7.60081 0.72673,1.71859 1.5294,3.35462 1.78371,3.63563 0.25431,0.28101 2.30716,1.84241 4.5619,3.46977 6.21121,4.48297 12.07902,10.41947 14.15139,14.31706 0.86838,1.63319 0.93923,3.83198 0.16443,5.10271 -0.94372,1.54777 -4.10931,3.13227 -11.2903,5.65124 -4.95742,1.73897 -9.966,3.88928 -12.38163,5.31574 -2.1791,1.28678 -5.59966,4.48787 -7.02157,6.57104 -2.65304,3.88684 -4.36021,8.6117 -6.214932,17.20073 -1.88761,8.74138 -2.88092,12.12836 -5.24759,17.89328 -4.05306,9.87276 -10.06112,19.01739 -17.7758,27.05582 -4.16004,4.33463 -13.06803,12.0371 -15.13916,13.09038 -1.08118,0.54984 -3.13421,0.54293 -4.26509,-0.0143 z M 166.15119,184.94935 c -1.52181,-0.776 -2.42378,-2.15515 -2.58705,-3.95573 -0.19104,-2.10681 0.17657,-2.75911 3.47386,-6.16417 12.22576,-12.62536 20.11489,-28.52749 22.64254,-45.64062 1.51692,-10.27009 0.78895,-20.38529 -2.22211,-30.876326 -3.74391,-13.044444 -10.17316,-24.310643 -19.18029,-33.610292 -2.01141,-2.076736 -3.86552,-4.181453 -4.12025,-4.67715 -0.71689,-1.395064 -0.47523,-3.903793 0.49908,-5.181187 1.36383,-1.788069 4.03225,-2.473824 6.16257,-1.583717 1.23266,0.515039 6.63653,5.823789 9.36132,9.196544 10.21335,12.64213 18.34344,32.172167 19.84165,47.663498 0.39985,4.13437 0.17214,14.626 -0.40811,18.80404 -2.55173,18.37339 -10.12016,35.34374 -21.79212,48.8635 -3.43487,3.97864 -6.61931,6.91981 -7.91127,7.30689 -1.48014,0.44346 -2.69748,0.39642 -3.75982,-0.14528 z M 149.06676,167.9982 c -1.26413,-0.60003 -1.82589,-1.19149 -2.37116,-2.4965 -0.99541,-2.38235 -0.41067,-3.90726 2.79861,-7.29828 7.71159,-8.14833 11.85938,-15.39453 14.26075,-24.91355 2.6721,-10.5922 2.39853,-20.43855 -0.83435,-30.03021 -2.73708,-8.120674 -7.43664,-15.665856 -13.09172,-21.01886 -2.59073,-2.452335 -3.27824,-3.566067 -3.26986,-5.296979 0.0191,-3.940615 3.72681,-6.157955 7.31071,-4.37202 1.58553,0.790103 6.57225,5.793458 8.96171,8.991615 5.72746,7.665854 10.03489,17.658994 11.80392,27.384784 0.71161,3.91231 0.96947,12.71475 0.49829,17.01026 -1.31857,12.02083 -5.8153,23.44939 -12.9212,32.83962 -2.24258,2.96351 -7.07468,8.07891 -8.41251,8.90573 -1.27847,0.79014 -3.40952,0.92268 -4.73319,0.29439 z m -14.91255,-18.05985 c -3.01758,-0.59314 -4.79305,-3.93189 -3.60409,-6.77746 0.22059,-0.52794 1.32644,-1.92378 2.45744,-3.10186 5.92398,-6.17055 8.56984,-12.38362 8.5727,-20.13062 0.003,-7.02566 -2.63957,-13.18488 -8.09247,-18.8645 -2.56245,-2.668992 -3.07275,-3.536603 -3.11229,-5.291526 -0.0721,-3.20233 1.76339,-5.080432 4.96528,-5.080432 2.06064,0 3.31471,0.785296 5.80753,3.636641 6.94975,7.949287 10.51804,17.378837 10.08787,26.658147 -0.46325,9.99302 -4.39786,19.15086 -11.39594,26.52412 -1.47321,1.5522 -2.07531,1.9936 -3.15792,2.3151 -0.73571,0.21848 -1.3458,0.38419 -1.35577,0.36825 -0.01,-0.0159 -0.53752,-0.13108 -1.17234,-0.25586 z m -54.110902,-28.1786 c -2.61834,-0.83534 -4.70347,-2.69627 -5.90595,-5.27092 -0.64912,-1.38984 -0.74143,-1.90116 -0.74143,-4.10661 0,-2.3122 0.0713,-2.66392 0.86798,-4.28223 2.41823,-4.91212 8.13782,-6.77727 13.09782,-4.27119 1.78651,0.90264 3.28044,2.50245 4.24911,4.55022 0.74361,1.572 0.83189,2.01393 0.82723,4.14106 -0.005,2.04969 -0.1102,2.61048 -0.75914,4.02758 -0.89462,1.9536 -2.97887,4.05177 -4.84462,4.87699 -1.67551,0.74107 -5.0037,0.9053 -6.791,0.3351 z"
       id="path1" /></g></svg>
