<?xml version="1.0" encoding="UTF-8" standalone="no"?>
<!-- Created with Inkscape (http://www.inkscape.org/) -->

<svg
  width="24"
  height="24"
   viewBox="0 0 33.866661 33.866665"
   version="1.1"
   id="svg1"
   xml:space="preserve"
   inkscape:version="1.3 (0e150ed, 2023-07-21)"
   sodipodi:docname="waarneming.svg"
   inkscape:export-filename="waarneming.svg"
   inkscape:export-xdpi="96"
   inkscape:export-ydpi="96"
   xmlns:inkscape="http://www.inkscape.org/namespaces/inkscape"
   xmlns:sodipodi="http://sodipodi.sourceforge.net/DTD/sodipodi-0.dtd"
   xmlns="http://www.w3.org/2000/svg"
   xmlns:svg="http://www.w3.org/2000/svg"><sodipodi:namedview
     id="namedview1"
     pagecolor="#ffffff"
     bordercolor="#000000"
     borderopacity="0.25"
     inkscape:showpageshadow="2"
     inkscape:pageopacity="0.0"
     inkscape:pagecheckerboard="0"
     inkscape:deskcolor="#007AFF"
     inkscape:document-units="mm"
     inkscape:zoom="1.398669"
     inkscape:cx="390.37114"
     inkscape:cy="238.08349"
     inkscape:window-width="1512"
     inkscape:window-height="859"
     inkscape:window-x="0"
     inkscape:window-y="38"
     inkscape:window-maximized="0"
     inkscape:current-layer="layer1" /><defs
     id="defs1" /><g
     inkscape:label="Layer 1"
     inkscape:groupmode="layer"
     id="layer1"
     transform="translate(-53.496175,-30.378917)">
         <path
         d="m 78.739049,39.580947 c -0.686601,0.01034 -1.361443,0.17984 -1.971428,0.495203 -0.77624,0.498448 -1.519351,1.046694 -2.224655,1.641289 -0.937883,-1.521243 -3.081881,-3.110015 -5.314039,-3.110015 -0.937884,0 -2.063342,0.172573 -3.432647,1.275522 -1.337421,0.981024 -8.51597,7.165415 -8.51597,7.165415 -0.927153,0.885862 -1.436184,2.122669 -1.401195,3.404514 0,2.406601 2.031453,5.205248 5.137717,5.205248 0.48691,-0.01382 0.967317,-0.115496 1.418078,-0.300127 0.15006,-0.05628 3.164413,-1.459339 3.164413,-1.459339 0.750306,1.198608 2.322195,2.115859 3.69713,2.115859 0.446609,0.01711 0.892351,-0.05168 1.313035,-0.20258 0.360149,-0.144435 9.502621,-3.993503 9.502621,-3.993503 0.887235,-0.375155 2.181513,-0.885365 2.708601,-1.209872 1.082316,-0.618999 2.16088,-2.275299 2.16088,-4.192329 -0.0038,-3.75528 -2.911186,-6.835285 -6.242541,-6.835285 z m -8.228977,9.808368 c -2.410354,0 -4.815085,-2.395352 -4.815085,-5.329043 0,-1.464975 0.952887,-3.894087 3.648361,-3.894087 2.410357,0 4.957645,2.151501 4.957645,5.413458 -0.0093,2.374714 -1.667556,3.809672 -3.790921,3.809672 z m 9.979065,0.135054 c -2.577299,0 -4.501833,-2.324065 -4.501833,-4.970774 0,-1.022286 0.620879,-3.26383 3.051868,-3.26383 2.121488,0 4.357399,2.091481 4.357399,5.064563 -0.0056,1.868261 -1.46122,3.170041 -2.916814,3.170041 z"
         id="path14"
         style="fill:#007AFF;stroke-width:0.187576" /></g></g></svg>
