<?xml version="1.0" encoding="utf-8"?>
<!-- Generator: Adobe Illustrator 25.0.1, SVG Export Plug-In . SVG Version: 6.00 Build 0)  -->
<svg version="1.1" id="CLIP_SILHOUETTE" xmlns="http://www.w3.org/2000/svg" xmlns:xlink="http://www.w3.org/1999/xlink" x="0px"
	 y="0px" viewBox="0 0 2400 1600" style="enable-background:new 0 0 2400 1600;" xml:space="preserve">
<style type="text/css">
	.st0{fill:#0066B1;}
</style>
<path class="st0" d="M1519.2,916.1c34-17.5,21-81.9,25.3-105.5c-1.4-93.2,20-99,31.6-112.2c1.9-2.1,7.3-3.8,9.1-2.7
	c3,1.9,5.7,6.2,6.2,9.7c0.3,2.3-3.5,7.3-5.7,7.4c-11.4,0.8-30.5,3.5-28,95.7c8.4,41.4,9.9,127.4,20.1,144"/>
<g>
	<path class="st0" d="M975.7,974.5c-7-4.3-11.9-7.7-17.2-10.6c-13.3-7.3-24.2-17.3-34.1-28.6c-1.9-2.2-4.8-4-7.6-4.7
		c-30.7-7.2-57.2-21.6-79.6-43.9c-1.6-1.6-4.1-2.4-6.4-3.2c-14.4-5.3-29.7-10-40.1-21.7c-7.6-8.5-15-15.8-25.7-20.1
		c-4.2-1.7-8.3-5.9-10.4-10c-3.4-6.5-8-10-14.9-11.3c-1.7-0.3-3.5-1.2-4.7-2.4c-7-6.6-14.4-13-20.6-20.3c-7.2-8.7-1.3-22.6,9.8-24.9
		c2.6-0.5,4.9-2.3,7.4-3.5c0.6-0.3,1-1.1,1.6-1.2c15.6-1.6,26.9-16.7,43.9-13.9c1,0.2,2.5-0.7,3.4-1.4
		c13.1-10.5,28.3-13.1,44.6-11.8c1.7,0.1,4-0.4,5.3-1.5c12.8-11.1,28.3-15.9,44.6-18c11.2-1.4,22.6-0.6,33.9-1
		c2.3-0.1,4.9-0.5,6.9-1.6c37.4-20.3,77.4-28.3,119.8-25.2c2.1,0.2,4.3-0.8,6.3-1.6c33-14.1,66.6-26.7,102.1-32
		c48.2-7.1,95-1.4,138.9,21.1c41.7,21.3,80.2,47.1,112.5,81.5c18.3,19.5,31.7,42.3,45.5,64.8c11.3,18.4,22.4,36.9,33.7,55.2
		c1.9,3.1,6,5.5,6.5,8.7c0.9,6.2,14.7,13.6,14.6,20.4c10.7,0.7,10,8,20.6,1.6c21.3-12.8,28.4-36.2,54.6-32.8
		c20,2.6,19.5-30.2,24.6-48.7c6.3-23.1,11.6-46.6,19-69.3c5.4-16.6,13.3-32.5,20.6-48.4c1.2-2.6,5.8-5.8,7.9-5.2
		c3.5,1,7.3,4.3,8.7,7.6c0.9,2.1-1.3,8-3.3,8.8c-10.7,4-13.2,13.8-15.4,22.5c-7.8,30.6-9.3,38.7-15.1,69.9
		c-3.3,17.8-11.4,96.9-3.5,114.7c2,4.5,2.3,10,2.3,15.1c0,8.5,4.3,12.8,12.1,15c4.5,1.3,9,2.9,12.9,5.3c2.7,1.6,6.8,5.8,6.3,6.9
		c-1.6,3.4-4.8,6.7-8.1,8.3c-2.5,1.2-6.6,0.3-9.6-0.8c-4.3-1.7-8.1-4.5-12.6-7c-2,9.5-7.8,13.6-17.5,13.3
		c-25-0.8-21.2,22.3-45.3,27.4c-26.1,5.5-55.8,35-82,39.6c-4.6,0.8-9.7-0.4-14.4-1.4c-28-6.2-56.1-9.7-84.7-4.5
		c-6,1.1-11.5,4.7-17.5,6.3c-4.2,1.1-9.5,2.4-13.2,0.8c-17-7-34.7-9.5-52.7-10.1c-39.3-1.5-78.4,1.8-117.3,7
		c-13.4,1.8-26.7,4.9-40.2,6.6c-18,2.3-35.8,1.2-53.4-4.6c-16.7-5.5-33.6-3.4-49.6,3.1c-16,6.4-32,11.9-49.4,13
		c-21.4,1.4-41.4-4.2-61.6-9.8c-7.3-2-14.6-3.7-21.9-5.7c-6-1.6-57.1,11.2-58.3,1.9c-0.1-1.1,0.2-2.7,1-3.5
		c8.3-8.9,34.4-18.6,42.4-27.7c12.7-14.4,29.7-21.3,46.6-28.8C944.3,991.3,959.2,982.9,975.7,974.5z"/>
</g>
<path class="st0" d="M1595.2,935.7c5.4,6.7,11.4,7.3,18.8,4.2c4.3-1.8,22.5-7.1,27.1-7.7c3.1-0.4,9,0.2,9.2,1.4
	c0.8,3.6,0.5,8.2-1.2,11.6c-1.2,2.5-5,4.4-8,5.3c-4.4,1.4-22.9,5.4-28,6.2"/>
</svg>
